<?xml version="1.0" encoding="utf-8"?>
<!-- Generator: Adobe Illustrator 19.2.1, SVG Export Plug-In . SVG Version: 6.00 Build 0)  -->
<svg version="1.1" id="Capa_1" xmlns="http://www.w3.org/2000/svg" xmlns:xlink="http://www.w3.org/1999/xlink" x="0px" y="0px"
	 width="448px" height="448px" viewBox="0 0 448 448" enable-background="new 0 0 448 448" xml:space="preserve">
<g>
	<path fill="none" d="M333.9,294.6c-12.6-0.1-23.7,8.5-26.6,20.8h-7.7c-7.6,0-13.7-6.4-13.7-14v-42.1c2.7-4.2,4.8-8.6,6.5-13.2h10.1
		c29.4,0,53.3-23.8,53.3-53.2c0-18.6-9.6-35.8-25.4-45.5c0.2-2,0.3-4.1,0.3-6.3c0-42.4-34.3-76.7-76.7-76.7
		c-14.9,0-29.5,4.4-42,12.5c-10.6,7-19.4,16.5-25.5,27.7c-2.4-0.3-4.8-0.4-7.3-0.4c-13.5,0-26.5,4.4-37.2,12.6
		c-9.7,7.4-17,17.4-21.1,28.8c-4.7,2.5-9.1,5.7-12.9,9.4c-20.8,20.8-20.8,54.5,0,75.3c10,10,23.6,15.6,37.7,15.6h10.1
		c1.7,4.6,3.9,9.1,6.5,13.2v42.1c0,7.6-6.2,14-13.7,14h-7.7c-2.9-12.3-14-20.9-26.6-20.8c-15.2,0-27.5,12.3-27.5,27.5
		c0,15.2,12.3,27.5,27.5,27.5c12.5,0,23.4-8.4,26.6-20.5h7.7c15.1,0,27.5-12.6,27.5-27.8v-26c11.5,10.1,25.9,16.4,41.2,17.8v36.5
		c-14.7,3.8-23.5,18.8-19.7,33.4s18.8,23.5,33.4,19.7s23.5-18.8,19.7-33.4c-2.5-9.7-10-17.2-19.7-19.7v-36.5
		c15.3-1.4,29.7-7.7,41.2-17.8v26c0,15.2,12.3,27.8,27.5,27.8h7.7c3.9,14.7,18.9,23.4,33.6,19.6c14.7-3.9,23.5-18.9,19.6-33.6
		C357.3,303,346.3,294.6,333.9,294.6z M114.2,335.7c-7.6,0-13.7-6.2-13.7-13.7c0-7.6,6.2-13.7,13.7-13.7c7.6,0,13.7,6.2,13.7,13.7
		C127.9,329.5,121.7,335.6,114.2,335.7z M151.1,220.6c0,3.9,0.3,7.8,1,11.7h-6.4c-21.9,0-39.6-17.7-39.6-39.5
		c0-10.5,4.2-20.6,11.6-28c3.4-3.4,7.3-6.1,11.7-8.1l2.7-1.3l0.9-2.9c6.3-20.4,25.3-34.6,46.1-34.6c3.3,0,6.6,0.3,9.8,0.9l5.3,1.1
		l2.3-4.9c5-10.8,13-20.1,22.9-26.6c29.1-19,68.1-10.9,87.1,18.2c6.7,10.3,10.3,22.2,10.3,34.5c-0.1,2.9-0.2,5.7-0.6,8.6l-0.6,5.6
		l4.2,2.1c19.6,9.7,27.6,33.4,17.9,53c-6.7,13.5-20.4,22-35.4,22H296c0.6-3.9,0.9-7.8,0.9-11.7c0-40.3-32.7-72.9-72.9-72.9
		S151.1,180.3,151.1,220.6z M237.7,356.2c0,7.6-6.2,13.7-13.7,13.7c-7.6,0-13.7-6.2-13.7-13.7c0-7.6,6.2-13.7,13.7-13.7
		C231.6,342.5,237.7,348.7,237.7,356.2z M224,279.7c-32.7,0-59.2-26.5-59.2-59.2c0-32.7,26.5-59.2,59.2-59.2
		c32.7,0,59.2,26.5,59.2,59.2C283.1,253.2,256.7,279.7,224,279.7z M333.9,335.7c-7.6,0-13.7-6.2-13.7-13.7c0-7.6,6.2-13.7,13.7-13.7
		c7.6,0,13.7,6.2,13.7,13.7C347.6,329.5,341.4,335.6,333.9,335.7z"/>
	<path fill="none" d="M248.5,235.3c3.7-5.5,5.6-12,5.6-18.7c0-18.8-15.2-34.1-34-34.2c-18.8-0.1-34.1,15.2-34.2,34
		c-0.1,18.8,15.2,34.1,34,34.2c6.7,0,13.2-1.9,18.8-5.6l11.6,11.5c2.7,2.7,7,2.7,9.7,0c2.7-2.7,2.7-7,0-9.7L248.5,235.3z
		 M220.1,236.8C220.1,236.8,220.1,236.8,220.1,236.8c-11.3,0-20.4-9-20.4-20.2c0-11.2,9-20.4,20.2-20.4c11.2,0,20.4,9,20.4,20.2
		C240.4,227.7,231.3,236.8,220.1,236.8z"/>
	<path fill="#FFFFFF" d="M224,147.7c40.3,0,72.9,32.6,72.9,72.9c0,3.9-0.3,7.8-0.9,11.7h6.4c15,0,28.7-8.5,35.4-22
		c9.7-19.6,1.7-43.3-17.9-53l-4.2-2.1l0.6-5.6c0.3-2.8,0.5-5.7,0.6-8.6c0-12.2-3.6-24.2-10.3-34.5c-19-29.1-58-37.2-87.1-18.2
		c-9.9,6.5-17.9,15.8-22.9,26.6l-2.3,4.9l-5.3-1.1c-3.2-0.6-6.5-0.9-9.8-0.9c-20.9,0-39.9,14.2-46.1,34.6l-0.9,2.9l-2.7,1.3
		c-4.3,2-8.3,4.7-11.7,8.1c-7.4,7.4-11.6,17.5-11.6,28c0,21.8,17.7,39.5,39.6,39.5h6.4c-0.6-3.9-0.9-7.8-1-11.7
		C151.1,180.3,183.7,147.7,224,147.7z"/>
	<path fill="#FFFFFF" d="M114.2,308.2c-7.6,0-13.7,6.2-13.7,13.7c0,7.6,6.2,13.7,13.7,13.7c7.6,0,13.7-6.2,13.7-13.7
		C127.9,314.3,121.7,308.2,114.2,308.2z"/>
	<path fill="#FFFFFF" d="M210.3,356.2c0,7.6,6.2,13.7,13.7,13.7c7.6,0,13.7-6.2,13.7-13.7c0-7.6-6.2-13.7-13.7-13.7
		C216.4,342.5,210.3,348.7,210.3,356.2z"/>
	<path fill="#FFFFFF" d="M224,161.4c-32.7,0-59.2,26.5-59.2,59.2c0,32.7,26.5,59.2,59.2,59.2c32.7,0,59.1-26.5,59.2-59.2
		C283.2,187.9,256.7,161.4,224,161.4z M260,256.5c-2.7,2.7-7,2.7-9.7,0L238.7,245c-5.6,3.7-12.1,5.6-18.8,5.6
		c-18.8-0.1-34-15.4-34-34.2c0.1-18.8,15.3-34,34.2-34c18.8,0.1,34,15.3,34,34.2c0,6.7-2,13.2-5.6,18.7l11.5,11.5
		C262.7,249.5,262.7,253.8,260,256.5z"/>
	<path fill="#FFFFFF" d="M219.9,196.2c-11.2,0.1-20.3,9.2-20.2,20.4c0.1,11.2,9.1,20.3,20.3,20.2c0,0,0.1,0,0.1,0
		c11.2,0,20.3-9.2,20.2-20.4C240.3,205.2,231.2,196.2,219.9,196.2z"/>
	<path fill="#FFFFFF" d="M333.9,308.2c-7.6,0-13.7,6.2-13.7,13.7c0,7.6,6.2,13.7,13.7,13.7c7.6,0,13.7-6.2,13.7-13.7
		C347.6,314.3,341.4,308.2,333.9,308.2z"/>
	<path fill="#FFFFFF" d="M224,0C100.3,0,0,100.3,0,224c0,123.7,100.3,224,224,224c123.7,0,224-100.3,224-224
		C448,100.3,347.7,0,224,0z M340.8,348.6c-14.7,3.9-29.7-4.9-33.6-19.6h-7.7c-15.2,0-27.5-12.6-27.5-27.8v-26
		c-11.5,10.1-25.9,16.4-41.2,17.8v36.5c9.7,2.5,17.2,10.1,19.7,19.7c3.8,14.7-5,29.7-19.7,33.4s-29.7-5-33.4-19.7s5-29.7,19.7-33.4
		v-36.5c-15.3-1.4-29.7-7.7-41.2-17.8v26c0,15.2-12.3,27.8-27.5,27.8h-7.7c-3.2,12.1-14.1,20.5-26.6,20.5
		c-15.2,0-27.5-12.3-27.5-27.5c0-15.2,12.3-27.5,27.5-27.5c12.6-0.1,23.6,8.5,26.6,20.8h7.7c7.6,0,13.7-6.4,13.7-14v-42.1
		c-2.6-4.2-4.8-8.6-6.5-13.2h-10.1c-14.2,0-27.8-5.6-37.7-15.6c-20.8-20.8-20.8-54.5,0-75.3c3.8-3.8,8.1-6.9,12.9-9.4
		c4.2-11.4,11.5-21.4,21.1-28.8c10.7-8.2,23.7-12.6,37.2-12.6c2.4,0,4.9,0.1,7.3,0.4c6.1-11.2,14.9-20.7,25.5-27.7
		c12.5-8.2,27.1-12.5,42-12.5c42.4,0,76.7,34.4,76.7,76.7c0,2.2-0.1,4.3-0.3,6.3c15.8,9.7,25.5,26.9,25.4,45.5
		c0,29.4-23.9,53.2-53.3,53.2h-10.1c-1.7,4.6-3.9,9.1-6.5,13.2v42.1c0,7.6,6.2,14,13.7,14h7.7c2.9-12.3,14-20.9,26.6-20.8
		c12.5,0,23.4,8.4,26.6,20.5C364.3,329.8,355.5,344.8,340.8,348.6z"/>
</g>
</svg>
