<?xml version="1.0" encoding="UTF-8"?>
<!DOCTYPE svg PUBLIC "-//W3C//DTD SVG 1.1//EN" "http://www.w3.org/Graphics/SVG/1.1/DTD/svg11.dtd">
<!-- Creator: CorelDRAW X7 -->
<svg xmlns="http://www.w3.org/2000/svg" xml:space="preserve" width="158.044mm" height="158.044mm" version="1.1" style="shape-rendering:geometricPrecision; text-rendering:geometricPrecision; image-rendering:optimizeQuality; fill-rule:evenodd; clip-rule:evenodd"
viewBox="0 0 15804 15804"
 xmlns:xlink="http://www.w3.org/1999/xlink">
 <defs>
  <style type="text/css">
   <![CDATA[
    .fil0 {fill:black}
   ]]>
  </style>
 </defs>
 <g id="Capa_x0020_1">
  <metadata id="CorelCorpID_0Corel-Layer"/>
  <path class="fil0" d="M7902 0c4365,0 7902,3538 7902,7902 0,4365 -3537,7902 -7902,7902 -4364,0 -7902,-3537 -7902,-7902 0,-4364 3538,-7902 7902,-7902zm1270 8705l-407 -405c130,-195 199,-424 199,-659 1,-664 -535,-1203 -1199,-1205 -664,-2 -1203,535 -1205,1198 -2,664 535,1204 1198,1206 236,0 467,-68 664,-198l408 407c95,94 248,94 343,-1 94,-95 94,-248 -1,-343zm-1407 -350c-1,0 -2,0 -3,0 -395,1 -715,-319 -717,-714 -1,-396 318,-718 714,-720 396,-1 719,318 720,714 2,396 -318,719 -714,720zm4950 2760c-112,-426 -497,-723 -937,-723l0 0c-445,-5 -835,299 -939,732l-273 0c-267,0 -484,-227 -484,-495l0 -1485c94,-147 171,-303 230,-467l356 0c1037,1 1879,-839 1880,-1876 1,-655 -339,-1262 -897,-1604 6,-72 10,-144 10,-223 1,-1494 -1210,-2705 -2704,-2706 -526,0 -1041,154 -1482,442 -375,247 -684,582 -899,976 -85,-9 -171,-13 -257,-13 -475,-1 -936,156 -1312,445 -341,261 -599,614 -746,1017 -167,88 -320,200 -454,333 -734,734 -735,1923 -1,2658 352,353 831,552 1331,551l355 0c60,164 137,320 230,467l0 1486c0,267 -217,494 -484,494l-273 0c-104,-433 -493,-737 -938,-732 -536,0 -970,435 -969,970 0,536 434,969 970,969 440,0 825,-297 937,-723l273 0c534,0 969,-444 969,-979l0 -916c406,358 914,578 1453,628l0 1288c-518,134 -830,662 -696,1180 134,518 662,830 1180,696 518,-134 830,-662 696,-1180 -88,-341 -354,-608 -696,-696l0 -1288c539,-50 1048,-270 1454,-628l0 916c0,535 434,979 969,979l272 0c137,518 667,827 1184,691 518,-136 828,-666 692,-1184zm-8688 726c-268,0 -485,-217 -485,-485 0,-267 217,-484 485,-484 267,0 484,217 484,484 0,268 -217,484 -484,485zm1303 -4060c1,138 12,275 34,412l-227 0c-771,0 -1396,-624 -1396,-1394 -1,-371 147,-726 409,-988 120,-119 259,-215 412,-285l97 -45 32 -103c221,-719 891,-1221 1628,-1221 117,0 233,10 347,32l187 38 80 -173c177,-382 457,-708 808,-939 1027,-671 2403,-383 3074,643 236,362 362,784 362,1216 -2,101 -8,202 -20,302l-20 197 149 75c690,342 973,1178 631,1869 -235,475 -719,776 -1249,776l-227 0c21,-136 32,-274 33,-412 0,-1421 -1152,-2572 -2572,-2572 -1420,0 -2572,1151 -2572,2572zm3057 4786c0,268 -217,485 -485,485 -267,0 -484,-217 -484,-485 0,-267 217,-484 484,-484 268,0 484,217 485,484zm-485 -2699c-1153,0 -2087,-934 -2087,-2087 0,-1153 934,-2087 2087,-2087 1153,0 2087,934 2087,2087 -1,1152 -935,2086 -2087,2087zm3876 1973c-268,0 -485,-217 -485,-485 0,-267 217,-484 485,-484 267,0 484,217 484,484 0,268 -217,484 -484,485z"/>
 </g>
</svg>
