<?xml version="1.0" encoding="UTF-8"?>
<!DOCTYPE svg PUBLIC "-//W3C//DTD SVG 1.1//EN" "http://www.w3.org/Graphics/SVG/1.1/DTD/svg11.dtd">
<!-- Creator: CorelDRAW X7 -->
<svg xmlns="http://www.w3.org/2000/svg" xml:space="preserve" width="158.044mm" height="158.044mm" version="1.1" style="shape-rendering:geometricPrecision; text-rendering:geometricPrecision; image-rendering:optimizeQuality; fill-rule:evenodd; clip-rule:evenodd"
viewBox="0 0 15804 15804"
 xmlns:xlink="http://www.w3.org/1999/xlink">
 <defs>
  <style type="text/css">
   <![CDATA[
    .fil0 {fill:black}
   ]]>
  </style>
 </defs>
 <g id="Capa_x0020_1">
  <metadata id="CorelCorpID_0Corel-Layer"/>
  <path class="fil0" d="M7902 0c4365,0 7902,3538 7902,7902 0,4365 -3537,7902 -7902,7902 -4364,0 -7902,-3537 -7902,-7902 0,-4364 3538,-7902 7902,-7902zm4358 3712l-1542 -1545c-111,-111 -262,-173 -419,-174l-6336 0c-326,0 -591,265 -591,591l0 10636c0,327 265,591 591,591l7879 0c326,0 590,-264 590,-591l0 -9090c1,-157 -61,-307 -172,-418zm-221 9508c0,109 -89,197 -197,197l-7879 0c-109,0 -197,-88 -197,-197l0 -10636c0,-109 88,-197 197,-197l6303 0 0 1379c0,326 264,591 591,591l788 0 0 -394 -788 0c-109,0 -197,-88 -197,-197l0 -1100 1321 1324c37,37 58,87 58,140l0 9090zm-6500 -6894l394 0 0 -393 -394 0 0 393zm787 0l3940 0 0 -393 -3940 0 0 393zm-787 788l4727 0 0 -394 -4727 0 0 394zm2363 1576c-760,-1 -1378,615 -1379,1376 0,361 142,708 394,966l0 1400c0,109 89,197 197,197 43,0 84,-13 119,-39l669 -502 670 502c34,26 75,39 118,39 109,0 197,-88 197,-197l0 -1400c533,-543 524,-1415 -19,-1948 -258,-253 -605,-394 -966,-394zm591 3349l-473 -355c-70,-53 -166,-53 -236,0l-473 355 0 -726c374,180 809,180 1182,0l0 726zm-591 -985c-544,0 -985,-441 -985,-985 1,-544 442,-984 985,-985 544,0 985,441 985,985 0,544 -441,985 -985,985zm-1182 -5515l2364 0 0 -394 -2364 0 0 394zm1182 3939c-326,0 -591,265 -591,591 0,326 265,591 591,591 327,0 591,-265 591,-591 0,-326 -264,-591 -591,-591zm0 788c-109,0 -197,-88 -197,-197 0,-109 88,-197 197,-197 109,0 197,88 197,197 0,109 -88,197 -197,197z"/>
  <g id="_3244832324976">
  </g>
  <g id="_3244832325744">
  </g>
  <g id="_3244832324208">
  </g>
  <g id="_3244832322000">
  </g>
  <g id="_3244832322288">
  </g>
  <g id="_3244832321872">
  </g>
  <g id="_3244832322768">
  </g>
  <g id="_3244832322096">
  </g>
  <g id="_3244832322576">
  </g>
  <g id="_3244832321552">
  </g>
  <g id="_3244832320080">
  </g>
  <g id="_3244832321200">
  </g>
  <g id="_3244832319760">
  </g>
  <g id="_3244832321360">
  </g>
  <g id="_3244832318800">
  </g>
 </g>
</svg>
