<?xml version="1.0" encoding="utf-8"?>
<!-- Generator: Adobe Illustrator 19.2.1, SVG Export Plug-In . SVG Version: 6.00 Build 0)  -->
<svg version="1.1" id="Capa_1" xmlns="http://www.w3.org/2000/svg" xmlns:xlink="http://www.w3.org/1999/xlink" x="0px" y="0px"
	 width="448px" height="448px" viewBox="0 0 448 448" enable-background="new 0 0 448 448" xml:space="preserve">
<g id="Capa_x0020_1">
	<path fill="#FFFFFF" d="M224,0c123.7,0,224,100.3,224,224c0,123.7-100.3,224-224,224C100.3,448,0,347.7,0,224
		C0,100.3,100.3,0,224,0z M347.5,105.2l-43.7-43.8c-3.1-3.1-7.4-4.9-11.9-4.9H112.3c-9.2,0-16.8,7.5-16.8,16.8v301.5
		c0,9.3,7.5,16.8,16.8,16.8h223.3c9.2,0,16.7-7.5,16.7-16.8V117.1C352.4,112.6,350.7,108.4,347.5,105.2z M341.3,374.7
		c0,3.1-2.5,5.6-5.6,5.6H112.3c-3.1,0-5.6-2.5-5.6-5.6V73.2c0-3.1,2.5-5.6,5.6-5.6H291v39.1c0,9.2,7.5,16.8,16.8,16.8h22.3v-11.2
		h-22.3c-3.1,0-5.6-2.5-5.6-5.6V75.6l37.4,37.5c1,1,1.6,2.5,1.6,4V374.7z M157,179.3h11.2v-11.1H157V179.3z M179.3,179.3H291v-11.1
		H179.3V179.3z M157,201.7h134v-11.2H157V201.7z M224,246.3c-21.5,0-39.1,17.4-39.1,39c0,10.2,4,20.1,11.2,27.4v39.7
		c0,3.1,2.5,5.6,5.6,5.6c1.2,0,2.4-0.4,3.4-1.1l19-14.2l19,14.2c1,0.7,2.1,1.1,3.3,1.1c3.1,0,5.6-2.5,5.6-5.6v-39.7
		c15.1-15.4,14.9-40.1-0.5-55.2C244.1,250.3,234.2,246.3,224,246.3z M240.8,341.3l-13.4-10.1c-2-1.5-4.7-1.5-6.7,0l-13.4,10.1v-20.6
		c10.6,5.1,22.9,5.1,33.5,0V341.3z M224,313.3c-15.4,0-27.9-12.5-27.9-27.9c0-15.4,12.5-27.9,27.9-27.9c15.4,0,27.9,12.5,27.9,27.9
		S239.4,313.3,224,313.3z M190.5,157h67v-11.2h-67V157z M224,268.7c-9.2,0-16.8,7.5-16.8,16.8s7.5,16.8,16.8,16.8
		c9.3,0,16.8-7.5,16.8-16.8S233.3,268.7,224,268.7z M224,291c-3.1,0-5.6-2.5-5.6-5.6s2.5-5.6,5.6-5.6c3.1,0,5.6,2.5,5.6,5.6
		S227.1,291,224,291z"/>
	<g id="_3244832324976">
	</g>
	<g id="_3244832325744">
	</g>
	<g id="_3244832324208">
	</g>
	<g id="_3244832322000">
	</g>
	<g id="_3244832322288">
	</g>
	<g id="_3244832321872">
	</g>
	<g id="_3244832322768">
	</g>
	<g id="_3244832322096">
	</g>
	<g id="_3244832322576">
	</g>
	<g id="_3244832321552">
	</g>
	<g id="_3244832320080">
	</g>
	<g id="_3244832321200">
	</g>
	<g id="_3244832319760">
	</g>
	<g id="_3244832321360">
	</g>
	<g id="_3244832318800">
	</g>
</g>
</svg>
