<?xml version="1.0" encoding="utf-8"?>
<!-- Generator: Adobe Illustrator 19.2.1, SVG Export Plug-In . SVG Version: 6.00 Build 0)  -->
<svg version="1.1" id="Capa_1" xmlns="http://www.w3.org/2000/svg" xmlns:xlink="http://www.w3.org/1999/xlink" x="0px" y="0px"
	 width="448px" height="448px" viewBox="0 0 448 448" enable-background="new 0 0 448 448" xml:space="preserve">
<g id="Capa_x0020_1">
	<path fill="#FFFFFF" d="M448,224c0,123.7-100.3,224-224,224C100.3,448,0,347.7,0,224C0,100.3,100.3,0,224,0
		C347.7,0,448,100.3,448,224z M346.3,270.6H335c-4.9,0-9.1-4.4-9.1-9.5v-4.5c0-5,3.9-8.7,9.1-8.7h10.6c2.7,0,5.5,1.8,5.5,4.7
		c0,7.2,5.9,13.1,13.1,13.1c7.3,0,13.1-5.9,13.1-13.1c0-14.9-10.8-27.3-25.1-30.3v-7.2c0-7.2-5.9-13.1-13.1-13.1
		c-7.2,0-13.1,5.9-13.1,13.1v7.6c-15.3,3.9-26.3,17.3-26.3,33.9v4.5c0,19.7,15.8,35.8,35.3,35.8h11.2c5.1,0,9.2,3.9,9.2,8.8v3
		c0,4.8-3.9,8.5-9.2,8.5H328c-2.6,0-5.2-1.6-5.2-4.6c0-7.2-5.9-13.1-13.1-13.1c-7.3,0-13.1,5.9-13.1,13.1
		c0,16.7,12.8,29.8,29.4,30.8v5.9c0,7.2,5.9,13.1,13.1,13.1c7.3,0,13.1-5.9,13.1-13.1v-6.3c16.9-2.7,29.4-16.8,29.4-34.2v-3
		C381.7,286.4,365.8,270.6,346.3,270.6L346.3,270.6z M284,200.7c-2.7-1.1-5.5-2.1-8.3-3.1c19.7-15.4,32.4-39.4,32.4-66.3
		c0-46.4-37.8-84.2-84.2-84.2s-84.2,37.8-84.2,84.2c0,26.9,12.7,51,32.5,66.4c-18.1,6.2-35.1,15.6-50.1,27.8
		c-28.1,23.2-47.7,55.5-55.1,91c-2.4,11.3,0.5,23,7.8,31.9c7.2,8.9,18,14,29.5,14h171c7.3,0,13.1-5.9,13.1-13.1
		c0-7.3-5.9-13.1-13.1-13.1h-171c-4.9,0-7.8-2.7-9.1-4.3c-2.3-2.8-3.1-6.5-2.4-10c12.6-60.7,66.2-105,128-106.4c1,0,2.1,0.1,3.1,0.1
		c1,0,2.1,0,3.1-0.1c16.3,0.4,32.1,3.6,47.1,9.7c6.7,2.7,14.4-0.5,17.1-7.3C294,211.1,290.8,203.4,284,200.7L284,200.7z
		 M166.1,131.3c0-31.9,26-57.9,57.9-57.9c31.9,0,57.9,26,57.9,57.9c0,31-24.5,56.4-55.2,57.8c-0.9,0-1.8,0-2.7,0c-0.9,0-1.9,0-2.8,0
		C190.6,187.6,166.1,162.3,166.1,131.3L166.1,131.3z"/>
</g>
</svg>
