<?xml version="1.0" encoding="utf-8"?>
<!-- Generator: Adobe Illustrator 19.2.1, SVG Export Plug-In . SVG Version: 6.00 Build 0)  -->
<svg version="1.1" id="Capa_1" xmlns="http://www.w3.org/2000/svg" xmlns:xlink="http://www.w3.org/1999/xlink" x="0px" y="0px"
	 width="448px" height="448px" viewBox="0 0 448 448" enable-background="new 0 0 448 448" xml:space="preserve">
<path fill="#FFFFFF" d="M224,200h8v8h-8V200z"/>
<path fill="#FFFFFF" d="M224,136h104v16H224V136z"/>
<path fill="#FFFFFF" d="M320,296h8v8h-8V296z"/>
<path fill="#FFFFFF" d="M272,200h8v8h-8V200z"/>
<path fill="#FFFFFF" d="M272,248h8v8h-8V248z"/>
<path fill="#FFFFFF" d="M320,200h8v8h-8V200z"/>
<path fill="#FFFFFF" d="M224,0C100.3,0,0,100.3,0,224s100.3,224,224,224s224-100.3,224-224C447.9,100.3,347.7,0.1,224,0z M376,344c0,4.4-3.6,8-8,8
	H184c-4.4,0-8-3.6-8-8v-8.1c-33,24.9-79.5,20.5-107.3-10c-27.8-30.5-27.8-77.2,0-107.8c27.8-30.5,74.3-34.9,107.3-10V96
	c0-4.4,3.6-8,8-8h184c4.4,0,8,3.6,8,8V344z"/>
<path fill="#FFFFFF" d="M192,336h168V104H192V336z M296,312c0,4.4-3.6,8-8,8h-24c-4.4,0-8-3.6-8-8v-24c0-4.4,3.6-8,8-8h24c4.4,0,8,3.6,8,8V312z
	 M296,264c0,4.4-3.6,8-8,8h-24c-4.4,0-8-3.6-8-8v-24c0-4.4,3.6-8,8-8h24c4.4,0,8,3.6,8,8V264z M296,216c0,4.4-3.6,8-8,8h-24
	c-4.4,0-8-3.6-8-8v-24c0-4.4,3.6-8,8-8h24c4.4,0,8,3.6,8,8V216z M344,312c0,4.4-3.6,8-8,8h-24c-4.4,0-8-3.6-8-8v-24c0-4.4,3.6-8,8-8
	h24c4.4,0,8,3.6,8,8V312z M344,264c0,4.4-3.6,8-8,8h-24c-4.4,0-8-3.6-8-8v-24c0-4.4,3.6-8,8-8h24c4.4,0,8,3.6,8,8V264z M344,216
	c0,4.4-3.6,8-8,8h-24c-4.4,0-8-3.6-8-8v-24c0-4.4,3.6-8,8-8h24c4.4,0,8,3.6,8,8V216z M208,128c0-4.4,3.6-8,8-8h120c4.4,0,8,3.6,8,8
	v32c0,4.4-3.6,8-8,8H216c-4.4,0-8-3.6-8-8V128z M208,192c0-4.4,3.6-8,8-8h24c4.4,0,8,3.6,8,8v24c0,4.4-3.6,8-8,8h-24
	c-4.4,0-8-3.6-8-8V192z M208,240c0-4.4,3.6-8,8-8h24c4.4,0,8,3.6,8,8v24c0,4.4-3.6,8-8,8h-24c-4.4,0-8-3.6-8-8V240z M208,288
	c0-4.4,3.6-8,8-8h24c4.4,0,8,3.6,8,8v24c0,4.4-3.6,8-8,8h-24c-4.4,0-8-3.6-8-8V288z"/>
<path fill="#FFFFFF" d="M320,248h8v8h-8V248z"/>
<path fill="#FFFFFF" d="M128,208c-35.3,0-64,28.7-64,64s28.7,64,64,64c18.4,0,36-8,48-21.9v-84.2C164,216,146.4,208,128,208z M128,264
	c17.9,0,32,10.5,32,24c0,11.4-10.1,20.6-24,23.2v8.8h-16v-8.8c-13.9-2.6-24-11.8-24-23.2h16c0,3.3,6.2,8,16,8s16-4.7,16-8
	s-6.2-8-16-8c-17.9,0-32-10.5-32-24c0-11.4,10.1-20.6,24-23.2V224h16v8.8c13.9,2.6,24,11.8,24,23.2h-16c0-3.3-6.2-8-16-8
	s-16,4.7-16,8S118.2,264,128,264z"/>
<path fill="#FFFFFF" d="M224,248h8v8h-8V248z"/>
<path fill="#FFFFFF" d="M224,296h8v8h-8V296z"/>
<path fill="#FFFFFF" d="M272,296h8v8h-8V296z"/>
</svg>
