<svg height="448pt" viewBox="0 0 448 448" width="448pt" xmlns="http://www.w3.org/2000/svg">
<path d="m224 200h8v8h-8zm0 0"/>
<path d="m224 136h104v16h-104zm0 0"/>
<path d="m320 296h8v8h-8zm0 0"/>
<path d="m272 200h8v8h-8zm0 0"/>
<path d="m272 248h8v8h-8zm0 0"/>
<path d="m320 200h8v8h-8zm0 0"/><path d="m224 0c-123.710938 0-224 100.289062-224 224s100.289062 224 224 224 224-100.289062 224-224c-.140625-123.652344-100.347656-223.859375-224-224zm152 344c0 4.417969-3.582031 8-8 8h-184c-4.417969 0-8-3.582031-8-8v-8.113281c-32.984375 24.859375-79.472656 20.523437-107.285156-10.011719-27.816406-30.53125-27.816406-77.21875 0-107.75 27.8125-30.535156 74.300781-34.871094 107.285156-10.011719v-112.113281c0-4.417969 3.582031-8 8-8h184c4.417969 0 8 3.582031 8 8zm0 0"/><path d="m192 336h168v-232h-168zm104-24c0 4.417969-3.582031 8-8 8h-24c-4.417969 0-8-3.582031-8-8v-24c0-4.417969 3.582031-8 8-8h24c4.417969 0 8 3.582031 8 8zm0-48c0 4.417969-3.582031 8-8 8h-24c-4.417969 0-8-3.582031-8-8v-24c0-4.417969 3.582031-8 8-8h24c4.417969 0 8 3.582031 8 8zm0-48c0 4.417969-3.582031 8-8 8h-24c-4.417969 0-8-3.582031-8-8v-24c0-4.417969 3.582031-8 8-8h24c4.417969 0 8 3.582031 8 8zm48 96c0 4.417969-3.582031 8-8 8h-24c-4.417969 0-8-3.582031-8-8v-24c0-4.417969 3.582031-8 8-8h24c4.417969 0 8 3.582031 8 8zm0-48c0 4.417969-3.582031 8-8 8h-24c-4.417969 0-8-3.582031-8-8v-24c0-4.417969 3.582031-8 8-8h24c4.417969 0 8 3.582031 8 8zm0-48c0 4.417969-3.582031 8-8 8h-24c-4.417969 0-8-3.582031-8-8v-24c0-4.417969 3.582031-8 8-8h24c4.417969 0 8 3.582031 8 8zm-136-88c0-4.417969 3.582031-8 8-8h120c4.417969 0 8 3.582031 8 8v32c0 4.417969-3.582031 8-8 8h-120c-4.417969 0-8-3.582031-8-8zm0 64c0-4.417969 3.582031-8 8-8h24c4.417969 0 8 3.582031 8 8v24c0 4.417969-3.582031 8-8 8h-24c-4.417969 0-8-3.582031-8-8zm0 48c0-4.417969 3.582031-8 8-8h24c4.417969 0 8 3.582031 8 8v24c0 4.417969-3.582031 8-8 8h-24c-4.417969 0-8-3.582031-8-8zm0 48c0-4.417969 3.582031-8 8-8h24c4.417969 0 8 3.582031 8 8v24c0 4.417969-3.582031 8-8 8h-24c-4.417969 0-8-3.582031-8-8zm0 0"/><path d="m320 248h8v8h-8zm0 0"/><path d="m128 208c-35.347656 0-64 28.652344-64 64s28.652344 64 64 64c18.429688.027344 35.953125-7.972656 48-21.921875v-84.15625c-12.046875-13.949219-29.570312-21.949219-48-21.921875zm0 56c17.945312 0 32 10.542969 32 24 0 11.367188-10.070312 20.566406-24 23.199219v8.800781h-16v-8.800781c-13.929688-2.613281-24-11.816407-24-23.199219h16c0 3.265625 6.230469 8 16 8s16-4.734375 16-8-6.230469-8-16-8c-17.945312 0-32-10.542969-32-24 0-11.367188 10.070312-20.566406 24-23.199219v-8.800781h16v8.800781c13.929688 2.613281 24 11.816407 24 23.199219h-16c0-3.265625-6.230469-8-16-8s-16 4.734375-16 8 6.230469 8 16 8zm0 0"/><path d="m224 248h8v8h-8zm0 0"/><path d="m224 296h8v8h-8zm0 0"/><path d="m272 296h8v8h-8zm0 0"/></svg>